<?xml version="1.0" standalone="no"?>
<!DOCTYPE svg PUBLIC "-//W3C//DTD SVG 20010904//EN"
 "http://www.w3.org/TR/2001/REC-SVG-20010904/DTD/svg10.dtd">
<svg version="1.0" xmlns="http://www.w3.org/2000/svg"
 width="590.000000pt" height="590.000000pt" viewBox="0 0 590.000000 590.000000"
 preserveAspectRatio="xMidYMid meet">
<metadata>
Created by potrace 1.14, written by Peter Selinger 2001-2017
</metadata>
<g transform="translate(0.000000,590.000000) scale(0.100000,-0.100000)"
fill="#000000" stroke="none">
<path d="M2850 4976 c-116 -54 -248 -105 -550 -211 -91 -32 -213 -79 -271
-105 -492 -221 -805 -606 -885 -1090 -21 -122 -21 -410 -1 -537 l15 -91 -52
-55 c-97 -102 -146 -225 -146 -367 0 -160 52 -283 168 -391 108 -101 249 -155
391 -147 l63 3 72 -165 c109 -252 169 -348 270 -434 54 -47 206 -142 318 -201
57 -29 72 -45 44 -45 -7 0 -38 -11 -67 -24 -59 -26 -130 -95 -169 -163 -13
-24 -27 -43 -30 -43 -22 0 -52 59 -80 160 -92 327 -110 384 -134 421 -70 104
-196 106 -246 4 -24 -49 -25 -113 -5 -205 7 -36 13 -66 12 -67 -2 -1 -15 22
-31 51 -66 121 -210 150 -286 58 -67 -81 -56 -126 85 -353 l114 -184 -29 -30
c-40 -42 -53 -79 -40 -123 7 -27 6 -40 -4 -51 -51 -58 -61 -141 -21 -167 14
-9 25 -21 25 -26 0 -34 139 -193 208 -238 15 -10 24 -28 28 -55 15 -113 10
-105 61 -105 l46 0 -7 59 -7 58 61 6 c42 3 77 15 116 37 31 17 57 30 58 28 1
-2 10 -33 19 -70 31 -119 30 -118 87 -118 45 0 50 2 42 18 -12 21 -53 165 -49
169 3 3 128 -37 135 -43 4 -2 -21 -95 -34 -129 -6 -13 76 -15 776 -15 l782 0
-6 47 c-4 27 -9 55 -12 64 -3 12 9 19 52 28 60 14 124 35 210 69 l52 21 29
-112 30 -112 56 -3 c32 -2 57 1 57 5 0 4 -15 68 -34 142 -27 104 -32 139 -24
154 27 52 -7 164 -107 352 -187 354 -208 381 -342 447 l-84 42 38 19 c21 11
85 46 143 79 273 158 339 235 485 578 l71 165 65 -3 c148 -8 304 54 406 161
109 114 153 222 153 378 0 140 -46 257 -144 366 l-47 52 12 88 c17 130 6 423
-20 538 -64 277 -179 501 -357 697 -296 326 -687 499 -1212 534 -99 6 -103 8
-98 28 3 11 9 44 12 72 6 49 5 54 -27 87 -53 56 -76 55 -209 -7z m-720 -1261
c216 -178 515 -324 787 -385 129 -28 148 -27 189 14 27 27 34 42 34 73 l0 40
112 -30 c129 -33 165 -31 202 14 28 33 34 78 16 124 -10 26 -9 26 75 -19 47
-25 106 -62 132 -83 39 -32 53 -38 94 -38 40 0 54 5 76 28 27 27 28 30 28 146
0 77 4 117 10 113 49 -29 141 -115 173 -161 54 -78 73 -133 79 -226 6 -113 10
-124 51 -162 l36 -33 -48 0 c-35 0 -73 11 -137 40 l-89 40 -97 -36 c-54 -19
-152 -46 -218 -58 -66 -13 -172 -39 -235 -56 l-115 -33 -304 -3 -305 -4 -155
39 c-86 21 -202 46 -258 55 -57 9 -143 32 -195 52 -51 19 -104 36 -118 36 -14
1 -60 -15 -103 -35 -43 -20 -95 -39 -115 -43 l-37 -7 26 29 c57 64 59 69 52
184 -8 139 7 188 84 270 47 52 191 160 211 160 4 0 32 -20 62 -45z m-292 -777
c7 -7 12 -22 12 -35 0 -18 -13 -29 -62 -53 -95 -46 -126 -78 -164 -166 l-25
-59 5 63 c3 35 15 85 26 110 47 105 164 184 208 140z m1709 -18 c12 -22 10
-27 -11 -45 -13 -11 -44 -32 -69 -46 -55 -33 -95 -85 -118 -152 -23 -67 -34
-43 -20 42 16 98 67 179 136 215 40 21 67 17 82 -14z m-2061 -1 c10 -17 -9
-29 -49 -31 -42 -1 -52 5 -44 27 7 18 82 21 93 4z m3033 -3 c16 -19 1 -28 -46
-28 -38 0 -59 14 -49 31 10 16 82 13 95 -3z m-3251 -343 c25 -48 43 -64 83
-72 30 -6 33 -12 79 -141 26 -74 59 -161 73 -194 15 -32 27 -61 27 -64 0 -2
-36 -3 -79 0 -171 10 -316 130 -366 303 -35 120 -6 269 71 371 l28 36 32 -100
c18 -55 41 -117 52 -139z m1757 223 c40 -17 65 -60 65 -115 0 -220 211 -504
461 -620 119 -56 218 -75 374 -75 136 1 181 8 277 49 19 8 -117 -317 -173
-412 -54 -90 -150 -180 -274 -253 -161 -95 -438 -232 -531 -263 -271 -89 -473
-58 -832 128 -424 219 -484 279 -631 622 -37 87 -73 168 -80 181 l-12 23 38
-20 c83 -42 152 -56 278 -54 251 2 421 65 583 218 139 130 215 269 247 450 8
47 19 94 25 105 25 46 117 64 185 36z m1766 -105 c57 -116 50 -273 -17 -386
-37 -63 -113 -133 -182 -167 -50 -25 -80 -32 -143 -36 l-79 -5 9 24 c5 13 25
62 44 109 19 47 45 118 58 158 21 66 27 75 67 98 56 33 111 117 141 215 12 41
25 81 27 89 7 21 35 -17 75 -99z m-3084 -1226 c27 -19 38 -50 117 -331 l65
-230 48 -48 48 -48 -23 -18 c-12 -10 -55 -59 -96 -108 l-73 -90 -114 114 c-62
63 -118 114 -124 114 -9 0 -40 47 -213 327 -45 74 -48 96 -16 128 21 21 77 19
96 -2 9 -10 55 -87 103 -170 48 -84 93 -153 100 -153 7 0 32 -16 56 -35 28
-22 45 -30 47 -22 1 7 -20 122 -48 256 -27 134 -50 253 -50 265 0 26 26 66 43
66 7 0 22 -7 34 -15z m1507 -507 c-65 -78 -123 -102 -245 -102 -73 0 -94 4
-142 28 -31 15 -66 41 -78 57 l-21 30 53 -8 c88 -13 328 -7 384 10 74 22 80
21 49 -15z m-1573 -295 c60 -59 109 -112 109 -119 0 -6 -7 -17 -15 -24 -8 -7
-17 -27 -21 -46 -3 -19 -11 -34 -18 -34 -6 0 -49 32 -96 71 -47 39 -102 82
-122 95 -45 29 -57 64 -34 100 14 21 71 64 85 64 2 0 53 -48 112 -107z m428
81 c31 -18 71 -73 71 -96 0 -9 -63 -75 -140 -147 -114 -107 -145 -131 -169
-131 -32 0 -71 39 -71 71 0 22 211 289 243 306 29 16 34 16 66 -3z m-563 -232
c130 -102 146 -118 142 -149 -5 -48 -38 -42 -141 28 -119 80 -126 87 -120 109
5 20 39 60 51 60 4 0 34 -22 68 -48z m533 -64 c-24 -45 -99 -137 -138 -167
-88 -70 -170 -87 -247 -52 -54 25 -61 38 -24 46 35 8 80 57 80 88 0 19 3 18
33 -10 41 -40 93 -51 139 -29 19 9 63 46 98 81 36 36 66 65 68 65 1 0 -3 -10
-9 -22z"/>
<path d="M2918 2409 c-16 -9 -18 -27 -18 -154 0 -157 3 -175 31 -175 31 0 39
34 39 174 0 109 -3 138 -16 150 -8 9 -16 16 -17 16 -1 0 -10 -5 -19 -11z"/>
<path d="M3487 1679 c-284 -121 -661 -132 -957 -28 -63 23 -129 43 -146 46
-61 10 -73 -55 -17 -93 37 -25 188 -76 293 -99 119 -26 413 -32 541 -10 197
33 390 102 404 144 8 26 -8 57 -33 63 -11 3 -49 -7 -85 -23z"/>
</g>
</svg>
