<?xml version="1.0" standalone="no"?>
<!DOCTYPE svg PUBLIC "-//W3C//DTD SVG 20010904//EN"
 "http://www.w3.org/TR/2001/REC-SVG-20010904/DTD/svg10.dtd">
<svg version="1.0" xmlns="http://www.w3.org/2000/svg"
 width="1200.000000pt" height="1200.000000pt" viewBox="0 0 1200.000000 1200.000000"
 preserveAspectRatio="xMidYMid meet">
<metadata>
Created by potrace 1.14, written by Peter Selinger 2001-2017
</metadata>
<g transform="translate(0.000000,1200.000000) scale(0.100000,-0.100000)"
fill="#000000" stroke="none">
<path d="M5718 11995 c-2 -1 -55 -6 -118 -9 -63 -4 -128 -8 -145 -11 -16 -2
-55 -6 -85 -9 -123 -12 -212 -24 -385 -52 -161 -26 -413 -84 -685 -158 -37
-10 -242 -77 -305 -100 -163 -58 -292 -110 -465 -187 -167 -75 -441 -217 -541
-280 -25 -16 -49 -29 -52 -29 -3 0 -46 -25 -94 -56 -357 -230 -592 -407 -873
-659 -68 -61 -394 -388 -434 -435 -16 -19 -45 -53 -65 -76 -189 -214 -400
-499 -555 -749 -47 -77 -91 -147 -96 -155 -97 -156 -287 -541 -386 -785 -108
-264 -256 -744 -289 -934 -3 -19 -8 -37 -10 -40 -2 -4 -13 -60 -25 -126 -23
-128 -24 -133 -39 -223 -14 -81 -27 -183 -37 -287 -3 -38 -8 -78 -10 -87 -18
-97 -26 -721 -11 -933 10 -150 17 -236 23 -274 3 -19 7 -53 10 -75 2 -23 11
-90 20 -151 9 -60 18 -119 19 -130 11 -78 101 -490 110 -505 2 -3 6 -18 8 -31
23 -125 187 -600 277 -804 180 -405 307 -639 523 -965 76 -115 268 -380 302
-416 5 -7 26 -31 45 -55 193 -239 489 -543 736 -756 34 -29 74 -63 90 -75 16
-12 31 -25 34 -28 14 -14 156 -125 240 -187 749 -549 1627 -923 2512 -1072 69
-12 135 -23 145 -25 31 -6 127 -19 158 -21 31 -3 121 -13 190 -21 211 -25 933
-25 1085 0 14 2 59 7 100 11 41 3 102 10 135 15 33 5 80 11 105 14 25 3 54 8
65 10 11 2 54 9 95 16 79 13 287 56 311 64 8 3 25 7 39 10 36 6 212 52 295 76
39 12 77 23 85 25 40 10 318 108 420 148 475 185 959 453 1380 765 63 47 117
88 120 92 3 3 33 27 67 53 34 26 68 53 75 60 7 6 45 39 83 72 118 100 164 144
330 310 188 188 218 221 351 380 478 571 835 1199 1072 1885 45 132 110 341
116 372 1 7 7 29 14 48 6 19 14 46 16 60 3 14 19 86 37 160 17 74 32 148 34
164 3 15 7 35 9 45 3 9 8 31 11 49 3 17 7 44 10 60 24 146 43 287 51 377 3 33
7 76 9 95 20 167 27 754 12 950 -11 136 -31 322 -42 400 -2 14 -7 45 -10 70
-3 25 -13 83 -21 130 -8 47 -19 108 -24 135 -57 334 -240 926 -379 1230 -15
33 -34 76 -42 95 -34 83 -222 447 -299 575 -276 464 -559 826 -949 1215 -389
388 -825 716 -1321 994 -65 37 -384 195 -471 234 -208 93 -614 239 -814 292
-290 77 -515 125 -730 155 -22 3 -51 8 -65 10 -14 3 -50 7 -80 10 -30 3 -71 8
-90 10 -19 2 -67 7 -105 10 -39 4 -90 9 -115 11 -50 6 -706 14 -712 9z"/>
</g>
</svg>
